<svg viewBox="0 0 512 512" xmlns="http://www.w3.org/2000/svg">
  <defs>
    <linearGradient id="bg" x1="0%" y1="0%" x2="100%" y2="100%">
      <stop offset="0%" stop-color="#FFB6E6"/>
      <stop offset="45%" stop-color="#C9A4FF"/>
      <stop offset="100%" stop-color="#A6D4FF"/>
    </linearGradient>
    <linearGradient id="horn" x1="0%" y1="100%" x2="100%" y2="0%">
      <stop offset="0%" stop-color="#FFE9A8"/>
      <stop offset="50%" stop-color="#FFC857"/>
      <stop offset="100%" stop-color="#FFA94D"/>
    </linearGradient>
    <linearGradient id="mane1" x1="0%" y1="0%" x2="100%" y2="100%">
      <stop offset="0%" stop-color="#FF8FCB"/>
      <stop offset="100%" stop-color="#C9A4FF"/>
    </linearGradient>
    <linearGradient id="mane2" x1="0%" y1="0%" x2="100%" y2="100%">
      <stop offset="0%" stop-color="#A6D4FF"/>
      <stop offset="100%" stop-color="#8DEFC0"/>
    </linearGradient>
    <linearGradient id="mane3" x1="0%" y1="0%" x2="100%" y2="100%">
      <stop offset="0%" stop-color="#FFE9A8"/>
      <stop offset="100%" stop-color="#FF8FCB"/>
    </linearGradient>
  </defs>
  <rect width="512" height="512" rx="112" fill="url(#bg)"/>
  <g fill="#FFFFFF" opacity="0.6">
    <circle cx="80" cy="95" r="6"/>
    <circle cx="435" cy="85" r="5"/>
    <circle cx="450" cy="240" r="4"/>
    <circle cx="55" cy="230" r="4"/>
  </g>
  <g transform="translate(345,140)" fill="#FFFFFF" opacity="0.9">
    <path d="M0 -14 L3.5 -3.5 L14 0 L3.5 3.5 L0 14 L-3.5 3.5 L-14 0 L-3.5 -3.5 Z"/>
  </g>
  <g transform="translate(256,260)">
    <path d="M -60 -45 Q -135 -75 -118 -140 Q -88 -105 -55 -95 Q -65 -70 -60 -45 Z" fill="url(#mane1)"/>
    <path d="M -72 5 Q -148 0 -148 -55 Q -112 -28 -72 -22 Q -78 -8 -72 5 Z" fill="url(#mane2)"/>
    <path d="M -68 50 Q -138 65 -130 115 Q -100 80 -65 65 Q -70 58 -68 50 Z" fill="url(#mane3)"/>
    <path d="M -38 35 Q -48 95 -18 145 L 48 145 Q 56 85 32 35 Z" fill="#FFFFFF"/>
    <ellipse cx="5" cy="-15" rx="100" ry="90" fill="#FFFFFF"/>
    <path d="M 65 15 Q 118 18 122 50 Q 116 68 85 66 Q 65 55 60 35 Z" fill="#FFFFFF"/>
    <ellipse cx="103" cy="50" rx="5" ry="7" fill="#D8B4FE"/>
    <ellipse cx="118" cy="46" rx="4" ry="6" fill="#D8B4FE"/>
    <path d="M 78 55 Q 90 64 102 56" stroke="#3A3147" stroke-width="3.5" stroke-linecap="round" fill="none"/>
    <path d="M 18 -100 L 0 -38 L 42 -42 Z" fill="url(#horn)" stroke="#FFA94D" stroke-width="2" stroke-linejoin="round"/>
    <path d="M 16 -86 L 9 -62" stroke="#FFFFFF" stroke-width="3" stroke-linecap="round" opacity="0.55"/>
    <path d="M 21 -70 L 14 -48" stroke="#FFFFFF" stroke-width="3" stroke-linecap="round" opacity="0.55"/>
    <path d="M -45 -70 Q -58 -108 -22 -115 Q -14 -82 -32 -60 Z" fill="#FFFFFF"/>
    <path d="M -40 -76 Q -48 -98 -25 -103 Q -21 -84 -33 -68 Z" fill="#FFD3EE"/>
    <path d="M -15 -88 Q 2 -118 28 -100 Q 22 -88 15 -75 Q -2 -78 -15 -88 Z" fill="url(#mane3)"/>
    <ellipse cx="38" cy="-8" rx="20" ry="24" fill="#3A3147"/>
    <circle cx="46" cy="-16" r="7" fill="#FFFFFF"/>
    <circle cx="32" cy="2" r="4" fill="#FFFFFF" opacity="0.85"/>
    <path d="M 20 -28 Q 28 -38 40 -34" stroke="#3A3147" stroke-width="4" stroke-linecap="round" fill="none"/>
    <ellipse cx="14" cy="22" rx="20" ry="13" fill="#FFC2E8" opacity="0.85"/>
  </g>
  <g transform="translate(256,440)">
    <rect x="-118" y="-38" width="236" height="68" rx="34" fill="#FFFFFF" opacity="0.92"/>
    <text x="0" y="13" font-family="Arial Rounded MT Bold, Arial, sans-serif" font-size="52" font-weight="800" text-anchor="middle" fill="#9333EA" letter-spacing="2">VIRGI</text>
  </g>
</svg>
